<svg width="22" height="24" viewBox="0 0 22 24" fill="none" xmlns="http://www.w3.org/2000/svg">
<path d="M10.8059 0C14.0219 0 16.6658 2.52709 16.8 5.72919H16.7686C16.7724 5.82227 16.7545 5.91495 16.7164 6H16.9037C18.3642 6 19.8934 7.01221 20.5066 9.45576L20.5732 9.74409L21.4959 17.1777C22.1599 21.9189 19.566 23.9127 16.0274 23.9972L15.7902 24H5.84224C2.24613 24 -0.524947 22.6896 0.084337 17.5003L0.125886 17.1777L1.05917 9.74409C1.51937 7.11262 3.06433 6.0747 4.55294 6.00392L4.71806 6H4.81187C4.79604 5.91042 4.79604 5.81877 4.81187 5.72919C4.94607 2.52709 7.58999 0 10.8059 0ZM7.3164 9.99515C6.73067 9.99515 6.25585 10.4839 6.25585 11.0867C6.25585 11.6896 6.73067 12.1783 7.3164 12.1783C7.90212 12.1783 8.37694 11.6896 8.37694 11.0867L8.36868 10.9498C8.30324 10.4116 7.85706 9.99515 7.3164 9.99515ZM14.263 9.99515C13.6773 9.99515 13.2024 10.4839 13.2024 11.0867C13.2024 11.6896 13.6773 12.1783 14.263 12.1783C14.8487 12.1783 15.3235 11.6896 15.3235 11.0867C15.3235 10.4839 14.8487 9.99515 14.263 9.99515ZM10.7589 1.56286C8.44997 1.56286 6.57821 3.42819 6.57821 5.72919C6.59403 5.81877 6.59403 5.91042 6.57821 6H14.9919C14.9585 5.91353 14.9408 5.82183 14.9396 5.72919C14.9396 3.42819 13.0678 1.56286 10.7589 1.56286Z" fill="url(#paint0_linear_4186_153)"/>
<defs>
<linearGradient id="paint0_linear_4186_153" x1="-2.03488e-07" y1="13.0667" x2="21.6069" y2="12.943" gradientUnits="userSpaceOnUse">
<stop stop-color="#7D3AEB"/>
<stop offset="1" stop-color="#9E2FB2"/>
</linearGradient>
</defs>
</svg>
