<svg width="24" height="19" viewBox="0 0 24 19" fill="none" xmlns="http://www.w3.org/2000/svg">
<path d="M20.3175 1.65194C18.7615 0.941098 17.1195 0.434198 15.4325 0.143936C15.4171 0.140953 15.4011 0.142913 15.3869 0.149532C15.3728 0.156151 15.361 0.167088 15.3535 0.180766C15.1435 0.554035 14.9095 1.04177 14.7455 1.425C12.9269 1.15005 11.0771 1.15005 9.25848 1.425C9.07595 0.999278 8.86997 0.583904 8.64148 0.180766C8.6336 0.167394 8.62183 0.156716 8.60773 0.150141C8.59362 0.143566 8.57785 0.141402 8.56248 0.143936C6.87533 0.433573 5.23321 0.940498 3.67748 1.65194C3.66431 1.65744 3.65314 1.66682 3.64548 1.67882C0.533481 6.30736 -0.319519 10.8194 0.0994806 15.2758C0.100498 15.2868 0.103773 15.2976 0.109103 15.3073C0.114433 15.3171 0.121708 15.3256 0.130481 15.3325C1.94213 16.6684 3.96863 17.6883 6.12348 18.3485C6.13867 18.3529 6.15484 18.3526 6.16984 18.3476C6.18484 18.3426 6.19797 18.3332 6.20748 18.3206C6.66948 17.6936 7.08148 17.0316 7.43348 16.3359C7.45448 16.295 7.43448 16.2463 7.39248 16.2303C6.74591 15.984 6.11995 15.6872 5.52048 15.3425C5.50949 15.3361 5.50024 15.3272 5.49356 15.3165C5.48688 15.3057 5.48297 15.2935 5.48217 15.2809C5.48138 15.2683 5.48373 15.2557 5.48902 15.2442C5.49431 15.2327 5.50237 15.2227 5.51248 15.215C5.63848 15.1215 5.76448 15.0229 5.88448 14.9244C5.89513 14.9158 5.90797 14.9103 5.92156 14.9086C5.93516 14.9068 5.94898 14.9088 5.96148 14.9144C9.88948 16.6992 14.1415 16.6992 18.0235 14.9144C18.0361 14.9086 18.0501 14.9065 18.0639 14.9083C18.0777 14.91 18.0907 14.9156 18.1015 14.9244C18.2215 15.0229 18.3475 15.1215 18.4745 15.215C18.5185 15.2469 18.5145 15.3146 18.4685 15.3415C17.8705 15.6898 17.2485 15.9835 16.5955 16.2293C16.5853 16.2331 16.576 16.2389 16.5683 16.2465C16.5605 16.2541 16.5545 16.2632 16.5506 16.2733C16.5468 16.2834 16.5451 16.2942 16.5458 16.305C16.5464 16.3158 16.5494 16.3263 16.5545 16.3359C16.9145 17.0306 17.3265 17.6916 17.7795 18.3197C17.7888 18.3325 17.8019 18.342 17.817 18.347C17.832 18.352 17.8483 18.3522 17.8635 18.3475C20.0219 17.6898 22.0517 16.6701 23.8655 15.3325C23.8744 15.3262 23.8819 15.318 23.8874 15.3086C23.8929 15.2991 23.8964 15.2886 23.8975 15.2778C24.3975 10.1247 23.0595 5.64841 20.3485 1.68081C20.3424 1.6676 20.3317 1.65701 20.3185 1.65095L20.3175 1.65194ZM8.02048 12.5623C6.83848 12.5623 5.86348 11.4824 5.86348 10.1545C5.86348 8.82767 6.81948 7.74668 8.02048 7.74668C9.23048 7.74668 10.1965 8.83762 10.1775 10.1555C10.1775 11.4824 9.22148 12.5623 8.02048 12.5623ZM15.9955 12.5623C14.8125 12.5623 13.8385 11.4824 13.8385 10.1545C13.8385 8.82767 14.7935 7.74668 15.9955 7.74668C17.2055 7.74668 18.1715 8.83762 18.1525 10.1555C18.1525 11.4824 17.2065 12.5623 15.9955 12.5623Z" fill="#7289DA"/>
</svg>
