<svg width="16" height="16" viewBox="0 0 16 16" fill="none" xmlns="http://www.w3.org/2000/svg">
<g clip-path="url(#clip0_4113_744)">
<g clip-path="url(#clip1_4113_744)">
<mask id="mask0_4113_744" style="mask-type:luminance" maskUnits="userSpaceOnUse" x="0" y="0" width="16" height="16">
<path d="M16 0H0V16H16V0Z" fill="white"/>
</mask>
<g mask="url(#mask0_4113_744)">
<path d="M11.333 1.3335H4.66634C2.82539 1.3335 1.33301 2.82588 1.33301 4.66683V11.3335C1.33301 13.1744 2.82539 14.6668 4.66634 14.6668H11.333C13.174 14.6668 14.6663 13.1744 14.6663 11.3335V4.66683C14.6663 2.82588 13.174 1.3335 11.333 1.3335Z" stroke="#18181B" stroke-linecap="round" stroke-linejoin="round"/>
<path d="M10.6668 7.5802C10.7491 8.13503 10.6543 8.70168 10.396 9.19954C10.1376 9.69741 9.72889 10.1011 9.22788 10.3533C8.72687 10.6055 8.1591 10.6933 7.60532 10.6042C7.05155 10.515 6.53997 10.2536 6.14336 9.85698C5.74674 9.46036 5.48528 8.94878 5.39618 8.39501C5.30707 7.84124 5.39484 7.27346 5.64701 6.77245C5.89919 6.27144 6.30292 5.86269 6.80079 5.60436C7.29865 5.34603 7.8653 5.25126 8.42013 5.33353C8.98608 5.41746 9.51003 5.68118 9.91459 6.08574C10.3192 6.4903 10.5829 7.01425 10.6668 7.5802Z" stroke="#18181B" stroke-linecap="round" stroke-linejoin="round"/>
<path d="M11.667 4.3335H11.6737" stroke="#18181B" stroke-linecap="round" stroke-linejoin="round"/>
</g>
</g>
</g>
<defs>
<clipPath id="clip0_4113_744">
<rect width="16" height="16" fill="white"/>
</clipPath>
<clipPath id="clip1_4113_744">
<rect width="16" height="16" fill="white"/>
</clipPath>
</defs>
</svg>
