<svg width="20" height="20" viewBox="0 0 20 20" fill="none" xmlns="http://www.w3.org/2000/svg">
<g clip-path="url(#clip0_4113_754)">
<path d="M16.0645 4.78618C14.9491 4.30658 13.753 3.95323 12.5024 3.75085C12.4797 3.74694 12.4569 3.7567 12.4452 3.77623C12.2913 4.03261 12.121 4.36709 12.0016 4.62999C10.6565 4.44128 9.31836 4.44128 8.00086 4.62999C7.88151 4.36125 7.70494 4.03261 7.55042 3.77623C7.53869 3.75736 7.51594 3.74759 7.49316 3.75085C6.24327 3.95258 5.04718 4.30593 3.9311 4.78618C3.92144 4.79009 3.91315 4.7966 3.90766 4.80505C1.63893 7.98133 1.01743 11.0795 1.32232 14.1393C1.3237 14.1543 1.33267 14.1686 1.34508 14.1777C2.84192 15.2078 4.29187 15.8332 5.71489 16.2477C5.73767 16.2542 5.7618 16.2464 5.77629 16.2289C6.1129 15.7981 6.41297 15.3439 6.67024 14.8662C6.68543 14.8382 6.67093 14.805 6.6399 14.794C6.16395 14.6248 5.71075 14.4185 5.2748 14.1842C5.24032 14.1654 5.23756 14.1191 5.26928 14.097C5.36102 14.0326 5.45279 13.9656 5.54038 13.8979C5.55623 13.8855 5.57832 13.8829 5.59695 13.8907C8.46094 15.1161 11.5615 15.1161 14.3917 13.8907C14.4104 13.8823 14.4325 13.8849 14.449 13.8972C14.5366 13.9649 14.6284 14.0326 14.7208 14.097C14.7525 14.1191 14.7504 14.1654 14.716 14.1842C14.28 14.423 13.8268 14.6248 13.3502 14.7933C13.3191 14.8044 13.3053 14.8382 13.3205 14.8662C13.5833 15.3432 13.8834 15.7974 14.2138 16.2282C14.2276 16.2464 14.2524 16.2542 14.2752 16.2477C15.7051 15.8332 17.155 15.2078 18.6519 14.1777C18.665 14.1686 18.6733 14.1549 18.6747 14.14C19.0395 10.6025 18.0635 7.52972 16.0872 4.8057C16.0824 4.7966 16.0742 4.79009 16.0645 4.78618Z" stroke="#18181B"/>
<path d="M11.3398 10.6231C11.3398 11.5341 12.0503 12.276 12.9126 12.276C13.7955 12.276 14.4853 11.5341 14.4853 10.6231C14.4991 9.71857 13.7955 8.97021 12.9126 8.97021C12.0365 8.97021 11.3398 9.71206 11.3398 10.6231Z" stroke="#18181B"/>
<path d="M5.52539 10.6231C5.52539 11.5341 6.23587 12.276 7.09812 12.276C7.97413 12.276 8.67083 11.5341 8.67083 10.6231C8.68463 9.71857 7.98103 8.97021 7.09812 8.97021C6.22209 8.97021 5.52539 9.71206 5.52539 10.6231Z" stroke="#18181B"/>
</g>
<defs>
<clipPath id="clip0_4113_754">
<rect width="20" height="20" fill="white"/>
</clipPath>
</defs>
</svg>
