<svg width="22" height="22" viewBox="0 0 22 22" fill="none" xmlns="http://www.w3.org/2000/svg">
<path d="M10.9925 0.11082C6.49045 0.11082 2.21445 -0.287334 0.582451 3.88333C-0.0925492 5.60833 0.0054508 7.84495 0.0054508 11.0501C0.0054508 13.8611 -0.0845492 16.5028 0.582451 18.2129C2.21145 22.3865 6.52145 21.9864 10.9895 21.9864C15.3005 21.9864 19.7455 22.4343 21.3985 18.2129C22.0745 16.4729 21.9745 14.2682 21.9745 11.0491C21.9745 6.77691 22.2114 4.0187 20.1294 1.9473C18.0224 -0.149971 15.1715 0.11281 10.9875 0.11281H10.9925V0.11082ZM10.0075 2.08168C19.3985 2.06774 20.5935 1.02856 19.9345 15.4646C19.6995 20.5709 15.7945 20.0095 10.9935 20.0095C2.23945 20.0095 1.98845 19.7607 1.98845 11.0431C1.98845 2.22601 2.68245 2.08765 10.0085 2.07969V2.08268L10.0075 2.08168ZM16.8575 3.89826C16.6844 3.89826 16.513 3.93219 16.3531 3.99812C16.1932 4.06405 16.0479 4.16068 15.9255 4.28251C15.8031 4.40433 15.706 4.54895 15.6398 4.70812C15.5735 4.86729 15.5395 5.03789 15.5395 5.21017C15.5395 5.38246 15.5735 5.55305 15.6398 5.71222C15.706 5.87139 15.8031 6.01601 15.9255 6.13784C16.0479 6.25966 16.1932 6.35629 16.3531 6.42222C16.513 6.48815 16.6844 6.52209 16.8575 6.52209C17.207 6.52209 17.5422 6.38387 17.7894 6.13784C18.0366 5.8918 18.1754 5.55811 18.1754 5.21017C18.1754 4.86223 18.0366 4.52854 17.7894 4.28251C17.5422 4.03648 17.207 3.89826 16.8575 3.89826ZM10.9925 5.43115C9.49597 5.43115 8.06077 6.02288 7.0026 7.07617C5.94443 8.12946 5.34995 9.55803 5.34995 11.0476C5.34995 12.5372 5.94443 13.9657 7.0026 15.019C8.06077 16.0723 9.49597 16.6641 10.9925 16.6641C11.7333 16.6641 12.4668 16.5188 13.1512 16.2365C13.8357 15.9543 14.4575 15.5406 14.9812 15.0191C15.505 14.4975 15.9204 13.8784 16.2037 13.1971C16.487 12.5157 16.6327 11.7855 16.6325 11.0481C16.6326 10.3107 16.4868 9.58056 16.2034 8.89927C15.9201 8.21798 15.5047 7.59892 14.9809 7.07743C14.4572 6.55594 13.8354 6.14224 13.1511 5.85994C12.4667 5.57764 11.7332 5.43128 10.9925 5.43115ZM10.9925 7.40201C15.8335 7.40201 15.8405 14.6942 10.9925 14.6942C6.15245 14.6942 6.14445 7.403 10.9925 7.403V7.40201Z" fill="url(#paint0_linear_4109_607)"/>
<defs>
<linearGradient id="paint0_linear_4109_607" x1="1.47645" y1="20.5729" x2="21.7777" y2="2.93136" gradientUnits="userSpaceOnUse">
<stop stop-color="#FFDD55"/>
<stop offset="0.5" stop-color="#FF543E"/>
<stop offset="1" stop-color="#C837AB"/>
</linearGradient>
</defs>
</svg>
