<svg width="213" height="38" viewBox="0 0 213 38" fill="none" xmlns="http://www.w3.org/2000/svg">
<path d="M11.295 37L10.08 7.075L0.72 8.29V1.45L28.575 4.015V4.645L18.36 5.995L17.145 37H11.295ZM46.8366 37.9C45.1266 37.9 43.3266 37.48 41.4366 36.64C39.5766 35.77 37.8216 34.525 36.1716 32.905C34.5216 31.285 33.1866 29.335 32.1666 27.055C31.1466 24.775 30.6366 22.21 30.6366 19.36C30.6366 17.14 30.9666 15.085 31.6266 13.195C32.3166 11.275 33.2316 9.565 34.3716 8.065C35.5116 6.565 36.7866 5.29 38.1966 4.24C39.6066 3.16 41.0466 2.35 42.5166 1.81C44.0166 1.24 45.4566 0.954997 46.8366 0.954997C48.1866 0.954997 49.5966 1.24 51.0666 1.81C52.5666 2.38 54.0066 3.205 55.3866 4.285C56.7966 5.335 58.0716 6.61 59.2116 8.11C60.3516 9.61 61.2516 11.305 61.9116 13.195C62.5716 15.085 62.9016 17.14 62.9016 19.36C62.9016 22.21 62.3916 24.775 61.3716 27.055C60.3516 29.335 59.0316 31.285 57.4116 32.905C55.7916 34.525 54.0516 35.77 52.1916 36.64C50.3316 37.48 48.5466 37.9 46.8366 37.9ZM48.6366 34.03C50.0466 34.03 51.2916 33.565 52.3716 32.635C53.4516 31.705 54.2916 30.415 54.8916 28.765C55.5216 27.085 55.8366 25.15 55.8366 22.96C55.8366 19.93 55.4916 17.29 54.8016 15.04C54.1116 12.76 53.2116 10.87 52.1016 9.37C50.9916 7.87 49.8066 6.745 48.5466 5.995C47.3166 5.245 46.1466 4.87 45.0366 4.87C43.6566 4.87 42.4116 5.335 41.3016 6.265C40.1916 7.165 39.3066 8.425 38.6466 10.045C38.0166 11.665 37.7016 13.57 37.7016 15.76C37.7016 18.97 38.0466 21.73 38.7366 24.04C39.4566 26.35 40.3716 28.24 41.4816 29.71C42.6216 31.18 43.8216 32.275 45.0816 32.995C46.3416 33.685 47.5266 34.03 48.6366 34.03ZM98.0659 37L96.7609 10.675L86.7259 33.58H86.4109L76.3309 10.675L72.2359 37.63H71.5609L69.0859 1.9H77.3659L88.3009 20.08L96.6709 1.9H104.006L103.331 37H98.0659Z" fill="white"/>
<path d="M138.125 37.585L119.405 10.72L115.4 37.585H114.68L111.8 1.9H119.18L134.57 20.53L139.34 1.45H140.195L138.485 37.585H138.125ZM162.589 37.9C160.879 37.9 159.079 37.48 157.189 36.64C155.329 35.77 153.574 34.525 151.924 32.905C150.274 31.285 148.939 29.335 147.919 27.055C146.899 24.775 146.389 22.21 146.389 19.36C146.389 17.14 146.719 15.085 147.379 13.195C148.069 11.275 148.984 9.565 150.124 8.065C151.264 6.565 152.539 5.29 153.949 4.24C155.359 3.16 156.799 2.35 158.269 1.81C159.769 1.24 161.209 0.954997 162.589 0.954997C163.939 0.954997 165.349 1.24 166.819 1.81C168.319 2.38 169.759 3.205 171.139 4.285C172.549 5.335 173.824 6.61 174.964 8.11C176.104 9.61 177.004 11.305 177.664 13.195C178.324 15.085 178.654 17.14 178.654 19.36C178.654 22.21 178.144 24.775 177.124 27.055C176.104 29.335 174.784 31.285 173.164 32.905C171.544 34.525 169.804 35.77 167.944 36.64C166.084 37.48 164.299 37.9 162.589 37.9ZM164.389 34.03C165.799 34.03 167.044 33.565 168.124 32.635C169.204 31.705 170.044 30.415 170.644 28.765C171.274 27.085 171.589 25.15 171.589 22.96C171.589 19.93 171.244 17.29 170.554 15.04C169.864 12.76 168.964 10.87 167.854 9.37C166.744 7.87 165.559 6.745 164.299 5.995C163.069 5.245 161.899 4.87 160.789 4.87C159.409 4.87 158.164 5.335 157.054 6.265C155.944 7.165 155.059 8.425 154.399 10.045C153.769 11.665 153.454 13.57 153.454 15.76C153.454 18.97 153.799 21.73 154.489 24.04C155.209 26.35 156.124 28.24 157.234 29.71C158.374 31.18 159.574 32.275 160.834 32.995C162.094 33.685 163.279 34.03 164.389 34.03ZM193.568 37L181.643 2.8L190.058 0.999999L196.898 29.485L212.108 1.45H212.738L201.443 37.585L193.568 37Z" fill="url(#paint0_linear_4111_626)"/>
<defs>
<linearGradient id="paint0_linear_4111_626" x1="-2.02546e-06" y1="18.4333" x2="214.168" y2="4.48817" gradientUnits="userSpaceOnUse">
<stop stop-color="#7D3AEB"/>
<stop offset="1" stop-color="#9E2FB2"/>
</linearGradient>
</defs>
</svg>
