<svg width="24" height="21" viewBox="0 0 24 21" fill="none" xmlns="http://www.w3.org/2000/svg">
<path d="M24.0002 10.9932C24.008 11.4684 23.8744 11.9352 23.6162 12.335C23.4867 12.5369 23.3291 12.7195 23.1482 12.8775C22.9662 13.0367 22.7622 13.1701 22.5402 13.2746C22.5564 13.463 22.5604 13.6521 22.5522 13.841C22.5496 13.9041 22.5456 13.9672 22.5402 14.0301C22.5402 17.8723 17.8382 20.9938 12.0362 20.9938C6.23522 20.9938 1.53222 17.8723 1.53222 14.0291C1.51672 13.8407 1.51338 13.6516 1.52222 13.4627C1.52322 13.4 1.52722 13.3373 1.53222 13.2746C1.18841 13.1249 0.880827 12.9036 0.63022 12.6256C0.384353 12.3523 0.202634 12.0279 0.0982196 11.676C-0.00498678 11.3272 -0.027213 10.9596 0.0332196 10.601C0.0942196 10.2427 0.23622 9.90026 0.44922 9.59966C0.66222 9.29806 0.94122 9.04523 1.26822 8.8571C1.59788 8.66895 1.9632 8.55101 2.34105 8.51074C2.71889 8.47047 3.10102 8.50876 3.46322 8.62319C3.82422 8.73766 4.15522 8.92578 4.43322 9.17463C5.47124 8.50485 6.59949 7.98506 7.78422 7.63079C8.97707 7.27249 10.2144 7.08185 11.4602 7.06441L12.7932 1.11202C12.8179 1.00646 12.8736 0.9106 12.9532 0.836673C13.0328 0.762747 13.1327 0.714101 13.2402 0.696942C13.3131 0.684454 13.3878 0.685805 13.4602 0.700923L17.8742 1.54103C18.3192 0.812406 19.2542 0.499856 20.0802 0.804443C20.9062 1.10704 21.3782 1.93719 21.1932 2.76137C21.0092 3.58555 20.2232 4.16088 19.3392 4.11708C18.4552 4.07428 17.7342 3.42529 17.6392 2.58718L13.7842 1.81575L12.6132 7.16793C15.0779 7.21415 17.4806 7.94504 19.5502 9.27815C19.9211 8.94085 20.38 8.71452 20.8742 8.62518C21.3721 8.5336 21.8858 8.58115 22.3582 8.76254C22.8282 8.9447 23.2342 9.25028 23.5252 9.64644C23.8162 10.0426 23.9812 10.5104 24.0002 10.9932ZM6.12022 13.3652C6.21022 13.5732 6.34322 13.7624 6.51022 13.9216C6.67822 14.0809 6.87622 14.2073 7.09522 14.2939C7.31322 14.3795 7.54822 14.4233 7.78522 14.4233C8.51322 14.4233 9.17022 14.0052 9.44922 13.3652C9.58506 13.0515 9.62051 12.7037 9.55072 12.3692C9.48094 12.0348 9.30932 11.7298 9.05922 11.4959C8.8013 11.2543 8.47954 11.091 8.13167 11.0251C7.78381 10.9592 7.42427 10.9933 7.09522 11.1236C6.42222 11.3894 5.98322 12.0145 5.98322 12.7082C5.98322 12.9332 6.02922 13.1562 6.12022 13.3652ZM16.4392 17.4831C16.4843 17.4414 16.5205 17.3911 16.5454 17.3351C16.5704 17.2791 16.5836 17.2186 16.5844 17.1573C16.5851 17.0961 16.5734 17.0353 16.5498 16.9787C16.5262 16.9221 16.4913 16.8709 16.4472 16.8281C16.3556 16.74 16.2336 16.6901 16.1062 16.6888C15.9772 16.6897 15.8518 16.7315 15.7482 16.8082C15.2019 17.1816 14.597 17.4618 13.9582 17.6374C13.3157 17.8156 12.6483 17.8889 11.9822 17.8544C10.9834 17.8958 9.98946 17.6945 9.08622 17.2681C8.78929 17.1273 8.50464 16.9622 8.23522 16.7744C8.14089 16.7005 8.02302 16.6629 7.90314 16.6684C7.78325 16.6739 7.66934 16.7221 7.58222 16.8043C7.49757 16.8838 7.447 16.9927 7.44104 17.1084C7.43508 17.2241 7.47419 17.3377 7.55022 17.4254C8.18863 17.8838 8.90033 18.2314 9.65522 18.4536C10.4153 18.6792 11.2076 18.7784 12.0002 18.7472C13.1909 18.796 14.375 18.5483 15.4452 18.0266C15.7972 17.8534 16.1222 17.7101 16.4392 17.4831ZM16.1092 14.5607C16.3522 14.5636 16.5952 14.5188 16.8202 14.4293C17.0462 14.3397 17.2502 14.2073 17.4202 14.0411C17.5902 13.8738 17.7232 13.6758 17.8102 13.4588C17.8977 13.2424 17.938 13.01 17.9282 12.7769C17.9282 12.0831 17.4882 11.458 16.8162 11.1923C16.4872 11.062 16.1276 11.0278 15.7798 11.0938C15.4319 11.1597 15.1101 11.323 14.8522 11.5645C14.6021 11.7985 14.4305 12.1034 14.3607 12.4379C14.2909 12.7724 14.3264 13.1202 14.4622 13.4339C14.7412 14.0739 15.3802 14.5607 16.1092 14.5607Z" fill="#FF4500"/>
</svg>
